<svg xmlns="http://www.w3.org/2000/svg" viewBox="0 0 120 120" fill="none">
  <rect width="120" height="120" rx="16" fill="#0a0e1a"/>
  <!-- Outer dashed ring -->
  <circle cx="60" cy="60" r="50" stroke="#2dd4bf" stroke-width="0.5" stroke-dasharray="3 7"/>
  <!-- Inner ring -->
  <circle cx="60" cy="60" r="30" stroke="#2dd4bf" stroke-width="0.5"/>
  <!-- Crosshair lines -->
  <line x1="60" y1="10" x2="60" y2="110" stroke="#2dd4bf" stroke-width="0.5"/>
  <line x1="10" y1="60" x2="110" y2="60" stroke="#2dd4bf" stroke-width="0.5"/>
  <!-- Diagonal lines -->
  <line x1="24" y1="24" x2="96" y2="96" stroke="#2dd4bf" stroke-width="0.3"/>
  <line x1="96" y1="24" x2="24" y2="96" stroke="#2dd4bf" stroke-width="0.3"/>
  <!-- North point — filled -->
  <path d="M60 12 L65 50 L60 55 L55 50 Z" fill="#2dd4bf"/>
  <!-- South point -->
  <path d="M60 108 L65 70 L60 65 L55 70 Z" fill="#2dd4bf" fill-opacity="0.45"/>
  <!-- East point -->
  <path d="M108 60 L70 65 L65 60 L70 55 Z" fill="#2dd4bf" fill-opacity="0.45"/>
  <!-- West point -->
  <path d="M12 60 L50 65 L55 60 L50 55 Z" fill="#2dd4bf" fill-opacity="0.45"/>
  <!-- NE -->
  <path d="M94 26 L68 56 L64 52 L71 45 Z" fill="#2dd4bf" fill-opacity="0.25"/>
  <!-- NW -->
  <path d="M26 26 L52 56 L56 52 L49 45 Z" fill="#2dd4bf" fill-opacity="0.25"/>
  <!-- SE -->
  <path d="M94 94 L68 64 L64 68 L71 75 Z" fill="#2dd4bf" fill-opacity="0.25"/>
  <!-- SW -->
  <path d="M26 94 L52 64 L56 68 L49 75 Z" fill="#2dd4bf" fill-opacity="0.25"/>
  <!-- Center -->
  <circle cx="60" cy="60" r="4" fill="#2dd4bf"/>
  <circle cx="60" cy="60" r="9" stroke="#2dd4bf" stroke-width="0.8"/>
  <!-- N label -->
  <text x="60" y="9" text-anchor="middle" font-size="7" fill="#2dd4bf" font-weight="700" font-family="sans-serif">N</text>
</svg>
