<svg xmlns="http://www.w3.org/2000/svg" viewBox="0 0 520 120" fill="none">
<g transform="translate(0.0 0.0) scale(1.0)" fill="none" stroke="#0a0e1a">
  <circle cx="60" cy="60" r="56" stroke-width="0.5" stroke-dasharray="3 7"/>
  <circle cx="60" cy="60" r="34" stroke-width="0.5"/>
  <line x1="60" y1="4" x2="60" y2="116" stroke-width="0.5"/>
  <line x1="4" y1="60" x2="116" y2="60" stroke-width="0.5"/>
  <line x1="20" y1="20" x2="100" y2="100" stroke-width="0.3"/>
  <line x1="100" y1="20" x2="20" y2="100" stroke-width="0.3"/>
  <path d="M60 6 L65 52 L60 57 L55 52 Z" fill="#0a0e1a" stroke="none"/>
  <path d="M60 114 L65 68 L60 63 L55 68 Z" fill="#0a0e1a" fill-opacity="0.45" stroke="none"/>
  <path d="M114 60 L68 65 L63 60 L68 55 Z" fill="#0a0e1a" fill-opacity="0.45" stroke="none"/>
  <path d="M6 60 L52 65 L57 60 L52 55 Z" fill="#0a0e1a" fill-opacity="0.45" stroke="none"/>
  <path d="M98 22 L68 56 L64 52 L71 45 Z" fill="#0a0e1a" fill-opacity="0.25" stroke="none"/>
  <path d="M22 22 L52 56 L56 52 L49 45 Z" fill="#0a0e1a" fill-opacity="0.25" stroke="none"/>
  <path d="M98 98 L68 64 L64 68 L71 75 Z" fill="#0a0e1a" fill-opacity="0.25" stroke="none"/>
  <path d="M22 98 L52 64 L56 68 L49 75 Z" fill="#0a0e1a" fill-opacity="0.25" stroke="none"/>
  <circle cx="60" cy="60" r="4" fill="#0a0e1a" stroke="none"/>
  <circle cx="60" cy="60" r="9" stroke-width="0.8"/>
  <text x="60" y="3.5" text-anchor="middle" font-size="7" fill="#0a0e1a" font-weight="700" stroke="none" font-family="'Barlow Condensed', 'Barlow Semi Condensed', 'Oswald', 'Liberation Sans Narrow', 'Arial Narrow', Impact, sans-serif">N</text>
</g>
<g font-family="'Barlow Condensed', 'Barlow Semi Condensed', 'Oswald', 'Liberation Sans Narrow', 'Arial Narrow', Impact, sans-serif" font-weight="700" font-size="72" letter-spacing="3" text-rendering="geometricPrecision">
  <text x="148" y="74" fill="#0a0e1a">REG<tspan fill="#2dd4bf">KNOT</tspan></text>
</g>
<g font-family="'IBM Plex Mono', 'DejaVu Sans Mono', 'Liberation Mono', monospace" font-weight="400" font-size="14" letter-spacing="2">
  <text x="150" y="100" fill="#64748b">MARITIME COMPLIANCE CO-PILOT</text>
</g>
</svg>
