<svg xmlns="http://www.w3.org/2000/svg" viewBox="0 0 30 20" width="28" height="20" preserveAspectRatio="xMidYMid slice">
  <rect width="30" height="20" fill="#de2910"/>
  <g transform="translate(15,10)">
    <g fill="#fff">
      <path d="M0,-5 C2,-4 3,-2 2.5,0 L1,0 C1.3,-1.2 0.7,-2.5 0,-3.2 Z"/>
      <path d="M4.76,-1.55 C4.16,0.32 2.43,1.45 0.5,1 L0.15,-0.46 C1.34,-0.16 2.55,-0.83 2.94,-2 Z" transform="rotate(72)"/>
      <path d="M4.76,-1.55 C4.16,0.32 2.43,1.45 0.5,1 L0.15,-0.46 C1.34,-0.16 2.55,-0.83 2.94,-2 Z" transform="rotate(144)"/>
      <path d="M4.76,-1.55 C4.16,0.32 2.43,1.45 0.5,1 L0.15,-0.46 C1.34,-0.16 2.55,-0.83 2.94,-2 Z" transform="rotate(216)"/>
      <path d="M4.76,-1.55 C4.16,0.32 2.43,1.45 0.5,1 L0.15,-0.46 C1.34,-0.16 2.55,-0.83 2.94,-2 Z" transform="rotate(288)"/>
    </g>
  </g>
</svg>
