<svg xmlns="http://www.w3.org/2000/svg" viewBox="0 0 30 20" width="28" height="20" preserveAspectRatio="xMidYMid slice">
  <rect width="30" height="10" fill="#ef3340"/>
  <rect y="10" width="30" height="10" fill="#fff"/>
  <circle cx="7" cy="5" r="3.2" fill="#fff"/>
  <circle cx="8.2" cy="5" r="3.2" fill="#ef3340"/>
  <g fill="#fff">
    <polygon points="6.2,2.8 6.5,3.6 7.4,3.6 6.7,4.1 6.9,4.9 6.2,4.4 5.5,4.9 5.7,4.1 5,3.6 5.9,3.6"/>
    <polygon points="9,2.8 9.3,3.6 10.2,3.6 9.5,4.1 9.7,4.9 9,4.4 8.3,4.9 8.5,4.1 7.8,3.6 8.7,3.6"/>
    <polygon points="10.4,5.4 10.7,6.2 11.6,6.2 10.9,6.7 11.1,7.5 10.4,7 9.7,7.5 9.9,6.7 9.2,6.2 10.1,6.2"/>
    <polygon points="7.6,5.4 7.9,6.2 8.8,6.2 8.1,6.7 8.3,7.5 7.6,7 6.9,7.5 7.1,6.7 6.4,6.2 7.3,6.2"/>
    <polygon points="4.8,5.4 5.1,6.2 6,6.2 5.3,6.7 5.5,7.5 4.8,7 4.1,7.5 4.3,6.7 3.6,6.2 4.5,6.2"/>
  </g>
</svg>
